<svg xmlns="http://www.w3.org/2000/svg" xmlns:xlink="http://www.w3.org/1999/xlink" version="1.1" x="0px" y="0px" viewBox="0 0 100 125" style="enable-background:new 0 0 100 100;" xml:space="preserve"><path d="M37.5,31.5c0.8,0.1,1.6,0.3,2.4,0.3c1.1,0,1.2,0.6,1,1.5c-0.1,0.4-0.3,0.8-0.5,1.3c-0.9,2.2-1.2,4.5-1.3,7.2  c2-0.8,3.6-0.5,4.3,1.6c0.1,0.3,0.6,0.4,0.9,0.5c2.2,0.7,4.1,2,6.1,3.2c0.7-0.3,0.3-0.9,0.3-1.3c0-1.6,0.3-3.1,0.5-4.7  c0.3-1.7,0.3-1.7-1.4-1.8c-2.1-0.2-4.2-0.4-6.2-1c-2-0.6-2.2-0.8-2-3c0.4-4.7,1.7-5.8,6.3-6.8c4.7-1,9.2,0.1,13.7,0.7  c0.9,0.1,2.1,1.9,2,3.1c-0.2,1.5-0.3,2.9-0.8,4.4c-0.5,1.5-1.5,2.2-2.9,2.4c-1.5,0.2-3.1,0.5-4.7,0.4c-0.8-0.1-1.3,0.2-1.3,1.1  c0,2.5-0.9,5-1.1,7.5c-0.1,0.9,0,1.4,0.7,1.8c1,0.6,2.2,1.2,1.4,2.7c-0.2,0.4,0.2,0.8,0.5,1.2c2.1,3.1,3,6.6,3.8,10.2  c0.2,1.1,0.4,2.2,1.6,3c1.3,0.9,0.5,4.4-1.1,5c-1.3,0.5-2.1,1.3-2.9,2.3c-2.1,2.6-4.2,5.2-6.4,7.8c-0.3,0.4-0.8,0.9-0.8,1.3  c-0.1,1.6-1.1,2.3-2.6,2.8c1.3,1.5,2.9,2.3,4.3,3.3c0.3,0.2,0.7,0.1,1.1,0.1c1.6-0.1,1.9,0.2,2.2,1.7c0.2,1-0.4,2.4-1.3,2.9  c-1.2,0.7-2.7,0.1-2.9-1.4c-0.4-2.6-2.6-3.2-4.4-4.3c-0.6-0.4-1,0.2-1.3,0.6c-1.8,1.8-4,2.9-6.1,4.2c-1.1,0.7-2.2,1.1-3.5,1.5  c-1,0.3-1.9,0.4-2.4,1.8c-0.4,1.3-2.3,1.4-3.7,1.5c-1.1,0.1-1.3-0.8-1.5-1.6c-0.1-0.6-0.7-0.8-1.2-0.9c-2.1-0.3-4.1-1.1-6.1-1.7  c-1.6-0.4-3.1-1.4-4.3-2.7c-0.8-0.9-1.4-0.9-2.2-0.1c-1,1-2.1,1.8-2.8,3.2c-0.6,1.3-2.2,1.7-3,1c-0.6-0.5-1.1-1.1-0.9-2  c0.2-0.8,0.8-1.6,1.7-1.6c2.1,0.2,2.9-1.6,4.2-2.5c0.3-0.2,0.5-0.6,0.2-1c-0.2-0.3-0.4-0.4-0.8-0.3c-1,0.4-1.9,0.1-2.3-0.8  c-0.5-1-1.3-2.2-0.4-3.3c0.6-0.7,0.4-1.4,0.3-2.1C9.7,77.4,9.8,73,11,68.6c0.8-2.8,1.7-5.5,3.8-7.5c2.1-2,3.8-4.3,6.4-5.9  c4.2-2.6,8.3-5.6,12.4-8.4c0.7-0.5,0.9-1,0.8-1.8c-0.1-1.8,0-3.6,0.4-5.3c0.3-1.6,0.1-3.1,0.5-4.7c0.3-1.1-0.4-1.3-1.2-1.4  c-0.9-0.1-1.5,0.2-1.5,1.2c0.1,1.3-0.4,2.7,0.2,4c0.2,0.4,0.2,0.9,0.1,1.3c-0.2,2.1-0.7,3.4-3.7,2.6c-0.5-0.1-1.1-0.3-1.5-0.2  c-3,0.6-6.1,0.1-9,1.2c-0.8,0.3-1.6,0-2.4-0.3c-3-1.5-6.1-2.7-9.5-3.1c-2.2-0.3-3.2-2-2.3-4.1c1.9-4.1,2.2-8.4,1.8-12.9  c-0.1-0.7-0.3-1.4-0.1-2.2c0.2-0.9,0.7-1.6,1.5-1.8c2.4-0.4,4.7-1.5,7.2-1.5c1.9,0,3.7,0.6,5.5,0.7c3.8,0.2,7.1,2.1,10.5,3.6  c1.8,0.8,2.9,1.7,3.1,3.6c0.1,0.7,0.1,1.3-0.3,1.9c-0.3,0.5-0.5,1-0.6,1.7c-0.2,2.1-0.3,2.1,2.2,2.4c0.4-4.6,0.7-9.1,0.6-13.7  c0-1.2,0.5-2.6-0.3-3.5c-0.8-0.9-2.3-0.3-3.4-0.4c-3-0.3-5.9-1-8.7-1.9c-0.4-0.1-0.8-0.3-1.2-0.6c-1.2-0.8-1.2-1.7-0.4-2.8  c0.4-0.6,1-0.8,1.6-1.2c2.5-1.3,5.3-1.4,8-1.8c0.5-0.1,1-0.1,1.5-0.2c0.9-0.2,1.8-0.4,1.6-1.6c0-0.1,0-0.3,0.1-0.4  c0.3-0.8,0.5-1.7,1.5-1.7c1.1,0,1.8,0.8,1.8,1.6c0.1,1.5,1,1.5,2.1,1.5c3.3-0.2,6.3,0.6,9.2,2.2c0.9,0.5,1.6,1.1,1.5,2.2  c-0.1,1.2-1,1.7-1.9,2c-2.5,0.9-5.1,1.6-7.7,2.2c-1.2,0.2-2.6,0.1-3.4,0.8c-0.9,0.7-0.1,2.1-0.1,3.2c-0.2,2.9-0.3,5.8-0.1,8.7  C37.9,27.9,37.1,29.7,37.5,31.5z M56.1,73.3c-1.6,0.2-2,1.6-2.7,2.7C54.6,75.4,55.1,74.2,56.1,73.3c0.1-0.5,0.8-0.8,0.7-1.9  C56.1,72.3,55.4,72.6,56.1,73.3z M48.2,48c0.2,1.2,1.4,1.9,1.8,3c0.1,0.3,0.4,0.7,0.8,0.4c0.4-0.3,0.8-0.8,0.4-1.1  C50.3,49.5,49.8,48,48.2,48c-1.1-1.8-3-2.4-4.8-3.2c-0.5-0.2-1,0.1-1.3,0.9C44.2,46.3,46.1,47.3,48.2,48z M55,58.1  c0.3-1.1-0.3-3.2-1.1-3.7c-0.2-0.1-0.4-0.1-0.6,0.1c-0.1,0.2-0.3,0.3-0.1,0.6C54,56.1,54.6,57.1,55,58.1c0.5,0.2,0.7,0.7,0.7,1.1  c0.3,2.3,1.5,4.3,2,6.6c0.1,0.4,0.1,0.9,0.7,1.2c0-2.1-1.1-6.5-1.9-8C56.2,58.3,55.8,57.9,55,58.1z M55,62.7  c0.1,2.3,0.2,4.6,1.2,6.7C56.9,67,56.1,64.9,55,62.7c0.1-2.9-2.1-4.8-3.6-7.1c-2.4,1.8-4.4,4-6.4,6.2c-0.2,0.3-0.5,0.7-0.1,1  c1.4,1.3,2.2,3.1,3.6,4.6c0.2-0.5,0.3-0.9,0.4-1.4c0.5,0.7,0.4,1.8,1.4,2.2c0.1-0.2,0.2-0.4,0.2-0.5c0.1-0.7,0-1.4-0.2-2  c-0.6-1.5,1.2-0.2,1.2-1c0-0.1,0-0.1,0-0.2c-0.1-1,0.7-1.8,0.6-2.8c1.1,0.3,0.5,1.7,1.6,1.9c0-1.3-0.8-2.3-1-3.4  c-0.1-0.4,0.1-0.8,0.5-0.8c0.3,0,0.5,0.3,0.5,0.6C53.3,61.2,54,62,55,62.7z M38.7,48.4c-0.5,0.9-0.3,1.9-0.7,2.8  c-0.2,0.4-0.3,0.9-0.9,0.7c-0.5-0.2-1-0.3-0.6-1.1c0.3-0.7,0.2-1.4,0-2.3c-0.7,0.5-1.6,0.8-1.6,1.6c0,1.2-1.6-0.4-1.4,1  c1.7,0.8,3.7,1.3,5.2,3.4c-2-0.7-3.3-2.4-5.3-2c0.5,0.8,1.5,0.8,1.8,1.7c-1.7,0.4-2.9-1.5-5.1-1.2c1.6,1.2,2.9,1.6,4.2,2.1  c0.3,0.1,0.9,0,0.9,0.5c0,1,0.8,1.1,1.5,1.4c1.4,0.6,2.7,1.2,3.8,2.3c0.4,0.4,0.9,0.7,1.5,0.4c-0.4-1.9-2.5-2-3.4-3.5  c0.6-0.2,1-0.1,1.4,0.2c0.9,0.7,1.9,1.2,2.6,2.1c0.2,0.2,0.4,0.5,0.7,0.5c0.7,0,1.7-1.7,1.3-2.4c-0.7-1.2-2-1.8-3-2.6  c-0.3-0.2-0.9-0.4-0.5-1c0.3-0.3,0.7-0.1,1.1,0L41.9,53c0.7,1.1,1.8,1.9,2.7,2.9c0.8,0.9,1.8,0.6,2.1-0.5c0.2-0.6-0.2-1.2-0.1-1.8  c0.6,0.2,0.8,1.4,1.8,0.6c0.8-0.7,0.8-1.3,0.4-2.1c-1.3-2.6-3.5-3.9-6.4-3.8c1,0.7,2,1.4,3,2.2c1.2,0.9,1.7,1.8,1.2,3.3  c-1.1-0.4-2-1.1-2.7-2.1c-1-1.3-3.2-1.9-4.9-1.3C39.3,49.6,39.2,48.9,38.7,48.4c1,0.5,1.9,0,2.7-0.7c-0.6-1-1.5-0.1-2.2-0.3  C38.1,47.2,39,48.1,38.7,48.4z M14,75.6c-0.4,2.1,0.9,4.4,2.2,6.7c0.6,1.1,1.5,2,2.2,3.1c1.5,2.4,3.5,4.2,6.3,5  c1.7,0.5,3.4,0.2,5,0.4c2.9,0.3,5.5-0.8,7.6-2.2c3.5-2.3,6.8-5.1,7.5-9.8c0.2-1.8,0.7-3.5,0.8-5.3c0.1-2.2-1-4-1.8-5.9  c-0.4-1.1-0.7-2.5-2.4-2.3c-0.2,0-0.4-0.2-0.5-0.4c-0.7-1.5-2.2-1.9-3.5-2.6c-3-1.7-6.2-3.2-9.7-2.6c-2.2,0.4-5-0.2-6.5,2.3  c-0.2,0.4-0.8,0.4-1.2,0.5c-0.5,0.1-1,0.2-1.4,0.7C15.5,66.5,13.9,70.5,14,75.6z M12.1,36.5c-0.9,0.5-1.4-0.1-2-0.4  c-0.3-0.2-0.6-0.2-0.8,0.1c-0.2,0.3-0.1,0.6,0.3,0.7c2,0.5,3.7,1.5,5.5,2.3c0.7,0.3,1.5,0.2,1.6-0.6c0.8-3.4,1.6-6.9,1.3-10.5  c0-0.3-0.2-0.6-0.5-0.6c-2-0.3-4-1-6-1.8c0.4,1.1,1.3,1,1.9,1.4c0.4,0.2,0.9,0.6,0.4,1c-0.5,0.5-0.4,0.5,0.1,0.8  c0.8,0.6,0.5,1.9-0.5,2.1c-0.8,0.2-1.4,0.7-2.3,0.5c0.4,1,1.6,0.9,2.1,1.9c-1.4-0.1-2.3-0.9-3.4-1.5c-0.4,2,1.7,1.5,2.1,2.6  c-0.7,0.3-1.1-0.3-1.7-0.4c-0.3,0-0.7,0-0.8,0.3c-0.2,0.4,0.1,0.7,0.4,1C10.4,35.8,11.3,35.7,12.1,36.5z M30.2,32.5  c-1.8-0.4-3.1-0.1-4.5,0.2C25,32.8,24,33,23.5,32.1c-0.3-0.5,0.8-1.8,1.7-2.1c0.6-0.2,1.3-0.3,2-0.4c0.7-0.1,1.3-0.1,2-0.2  c0.3-0.1,1-0.1,0.7-1c-2.5,0.1-5.1,0.2-7.7,0.3c-0.9,0-1,0.8-1.1,1.4c-0.5,2.6-1,5.3-1.4,7.9c-0.2,1.1,0.4,1.9,1.3,1.8  c2.2-0.2,4.3,0.2,6.5,0c0.9-0.1,2-1.2,1.8-2.1c-0.2-0.9-1.1-0.6-1.7-0.7c-0.7-0.1-1.3,0.1-2,0c-1,0-2,0.3-3-0.1  c0.1-0.8,0.7-0.7,1.2-0.7c1.5,0,3,0,4.5,0c1.1,0,1.4-0.5,1.4-1.8c0-1.1-0.8-0.8-1.4-0.9c-0.4,0-0.9-0.1-1,0.6  c0.4,0.1,0.7,0.1,1.1,0.2c0.2,0,0.4,0.2,0.4,0.4c0,0.2-0.1,0.4-0.3,0.5c-1.7,0.5-3.4,0.6-5,0.1C23.2,35.5,23,35,23.2,35  c1.1-0.2,1.1-1.9,2.6-1.7C27.1,33.4,28.6,33.5,30.2,32.5z M30.4,24.7c-6.1-3.9-12.3-5.5-19.3-4.2c2.1,2.7,5.1,3.8,8.1,2.9  c0.9-0.3,2-0.3,2.5,0.5c1,1.7,2.6,1.5,4.1,1.6C27.3,25.7,28.7,25.8,30.4,24.7z M18.7,89.7c0.4,0.5,0.5,0.7,0.6,0.9  c4.2,3.2,8.9,4.1,14.1,3.1c3.6-0.7,6.5-3,9.6-4.6c0.8-0.4,1.4-1.4,1.9-2.1c0.5-0.7,0.7-1.4,0-2.1c-1.2,0.6-1.3,2-2.3,2.5  c-1.8,0.8-3.3,2.1-4.9,3.1c-3,1.8-6.1,2.8-9.8,2.4C24.8,92.4,21.8,91.5,18.7,89.7z M46.3,8.1C44,6.6,41.5,6.6,39,6.8  c-3.4,0.3-6.8,0.8-10.1,1.3c-0.4,0-0.7,0.1-1.1,0.3c-0.3,0.1-0.7,0.1-0.8,0.8C33.5,9.1,40,9.4,46.3,8.1z M45.1,10.4  c-6.2,0.7-12.5,0.3-19.1,0.5C30,13.4,40.1,13.1,45.1,10.4z M23.9,58.3c2.8-0.5,5.6-0.4,8.4,0.3c2.7,0.6,4.9,2.3,7.6,2.8  c-3.9-4-8.9-4.5-14.1-4.3C25,57.1,24.4,57.3,23.9,58.3z M46.7,80.4c0.8-0.2,0.9-0.7,0.9-1.1c0.2-2.2,0.4-4.4,0.4-6.6  c0.1-2.9-1.4-5.1-3.1-7.2c-0.1-0.1-0.4-0.5-0.8,0C46.7,70.1,48,75,46.7,80.4z M36.9,43.9c0.9-2.4,1.1-6.1,0.4-7.7  C35.8,38.9,36.1,41.4,36.9,43.9z M16.8,61.4C14,64,13,66.9,12.7,70.2c0.5-1.4,1.2-2.8,1.7-4.3C15,64.5,16.7,63.6,16.8,61.4z   M12.9,80.1c-0.1,3.5,1.2,6,3.6,6.7C14.5,84.9,14,82.6,12.9,80.1z M50.3,71.7c-1,1.8-0.6,3.6-0.4,5.5C50.8,75.5,50.7,73.7,50.3,71.7  z M53.7,72.2c1.4-1.4,1.4-3.3,0-5.6C53.7,68.6,53.7,70.3,53.7,72.2z M36.2,46.8c-1.9,1.1-4,1.9-5.6,4.1C33,49.8,34.6,48.2,36.2,46.8  z M20,59.8c-0.2-0.5,0.1-1.4-0.7-1.3c-0.8,0-0.9,0.9-1,1.5c-0.1,0.5,0.2,0.9,0.7,1C19.8,61,19.9,60.4,20,59.8z M22.1,56.7  c2.7-1,2.8-1.1,3.4-2.5C24.3,55,23.2,55.9,22.1,56.7z M29,27.1c-2.1,0-3.6,0-5.1,0C25.5,27.2,27,27.6,29,27.1z M47.6,82.4  c-0.6,0.1-0.9,0.5-1,1c-0.1,0.4,0,0.8,0.5,0.8c0.6,0.1,0.9-0.4,1-0.9C48.1,82.9,48,82.5,47.6,82.4z M27.9,55.1c1.3,0,2.2,0,3.4,0  C30.2,54.3,29.3,53.8,27.9,55.1z M55.5,35.6c-0.7,0.1-0.9,0.6-1,1.2c0,0.4,0.3,0.7,0.7,0.7c0.3,0,0.5-0.3,0.5-0.6  C55.7,36.5,55.9,36.1,55.5,35.6z M48.8,55.8c-0.9,0.6-2,1-2.6,2.7C47.4,57.5,48.3,56.9,48.8,55.8z M43.9,34.4  c-0.2,0.8-0.5,1.6,0.3,2.1c0.1,0.1,0.4,0,0.4-0.1C44.7,35.7,44.9,34.9,43.9,34.4z M52.9,52.7c-0.1-0.3-0.3-0.6-0.6-0.6  c-0.6,0.1-0.7,0.7-0.8,1.2c-0.1,0.4,0.2,0.6,0.5,0.5C52.6,53.7,52.8,53.2,52.9,52.7z M41.5,62.9c0,0.4,0.3,0.5,0.6,0.4  c0.4-0.1,0.7-0.2,0.7-0.7c0-0.4-0.3-0.7-0.7-0.5C41.7,62.2,41.4,62.5,41.5,62.9z M28.5,40.7c-1-0.2-1.6,0.1-2.5,0.5  C27,41.4,27.7,41.4,28.5,40.7z M43.8,60.8c0.8-0.6,1.5-0.8,1.8-1.9C44.6,59.4,44.2,59.8,43.8,60.8z M29.6,96.2  c0.2,0.3,0.5,0.3,0.8,0.2c0.3-0.1,0.7-0.1,0.7-0.4c0-0.5-0.5-0.4-0.8-0.3C30,95.8,29.7,95.9,29.6,96.2z M11.2,29c0.4,0.6,1,1,1.8,1  C12.5,29.3,11.9,29.1,11.2,29z M29.3,30.1c-0.2,0.1-0.6,0.1-0.6,0.2c0,0.3,0.3,0.4,0.6,0.4c0.2,0,0.4-0.2,0.4-0.4  C29.8,30.3,29.5,30.2,29.3,30.1z M59.2,70.2c0.3-0.1,0.5-0.3,0.6-0.6c0.1-0.3-0.1-0.5-0.4-0.6c-0.4-0.1-0.4,0.3-0.5,0.5  C58.9,69.8,58.9,70.1,59.2,70.2z M58.3,36.9c0.3-0.1,0.4-0.4,0.5-0.6c0.1-0.2,0-0.3-0.2-0.3c-0.2,0-0.4,0.1-0.4,0.4  C58.1,36.5,58.1,36.7,58.3,36.9z M54.2,65c0.1-0.4-0.2-0.4-0.3-0.4c-0.2,0-0.4,0.2-0.4,0.3c-0.1,0.2,0.1,0.4,0.4,0.4  C53.9,65.3,54,65.1,54.2,65z M45.7,36.2c0.2-0.4,0.4-0.8,0.1-1.2C45.3,35.3,45.7,35.7,45.7,36.2z M52.5,70.6c0-0.3,0-0.5,0-0.7  c0-0.1-0.1-0.1-0.1-0.2c0,0.2,0,0.4,0,0.6C52.4,70.4,52.5,70.5,52.5,70.6z M51.5,71.8c0.1-0.1,0.2-0.2,0.2-0.4  c0-0.2,0.1-0.7-0.2-0.6C51.2,70.9,51.2,71.5,51.5,71.8z M31,41c0.2-0.2,0.3-0.3,0.4-0.5c0-0.1-0.1-0.3-0.1-0.4  c-0.4,0-0.5,0.2-0.5,0.5C30.8,40.8,30.9,40.9,31,41z M22.7,41.4c-0.6,0-1-0.2-1.6,0.3C21.7,41.7,22.1,41.9,22.7,41.4z M40.4,44.5  c0.1-0.4-0.1-0.5-0.4-0.4c-0.3,0.1-0.6,0.3-0.5,0.6c0,0.1,0.3,0.3,0.4,0.4C40.1,44.8,40.2,44.6,40.4,44.5z"/><path d="M77.8,69.1c0.8,3.4,1.2,6.8,2.2,10.1c0.4,1.2,0.8,2.5,2,3.4c1,0.7,1,1.7,0.3,2.8c-0.4,0.7-1.2,1.1-1.9,1.5  c-0.7,0.4-1.7,0.9-2.3,0.4c-0.7-0.6-1.1-1.8-0.7-2.6c0.7-1.6,0.3-3.2,0.1-4.8c-0.3-1.8-0.7-3.7-0.8-5.5c-0.1-1.6-1.1-3.1-0.9-4.6  c-0.8-0.3-1.2,0.2-1.6,0.5c-2.5,2.2-4.8,4.7-7.4,6.8c-1.1,0.9-2.1,1.9-2.3,3.4c-0.1,0.5-0.4,0.9-0.7,1.4c-0.8,1.1-2.1,1.3-3.1,0.5  c-1-0.8-1.1-2.1-0.2-3.1c0.5-0.6,1.3-1,2.1-1.3c0.9-0.3,1.6-0.8,2.2-1.4c3.3-3.2,6.6-6.5,9.9-9.6c0.7-0.7,1.1-1.2,1.1-2.3  c0.1-4.3,0.2-8.6,0.5-12.9c0.2-2.5-0.1-5.1,0-7.6c0.1-1.2-0.9-1.8-1.8-1.9c-1.6-0.2-3.2-0.7-4.8-1c-0.7-0.1-1.3,0.2-2,0.3  c-1.4,0.2-1.7-0.3-1.8-1.8c-0.1-4.1,1-8.1,0.6-12.1c-0.2-1.5,0.5-2.4,2.1-2.8c0.2-0.1,0.4-0.1,0.6-0.2c2.3-1,4.7-1.4,7.2-1.1  c3.5,0.4,7.1,0.4,10.7,1c0.3,0,0.6,0.1,0.9,0.2c2.6,0.6,3.1,1.3,3,4c0,1.9-0.3,3.8-0.4,5.8c0,1.2,0.3,2.4,0.3,3.6  c0,1.9-0.5,2.7-2.5,2.7c-2.7,0-5.2,1.4-7.9,1.6c-1.1,0.1-1.5,0.9-1.7,1.8c-0.5,2.4-0.8,4.8-0.8,7.3c0,4.5,0,8.9-0.1,13.4  c0,0.9,0.1,1.6,1,2.1c1.9,1,3.4,2.6,5.2,3.8c2.1,1.4,4.4,2.4,6.5,3.8c0.5,0.3,1,0.3,1.5,0.2c0.5,0,1.1-0.6,1.4,0  c0.4,0.8,1.3,1.2,1.5,2.2c0.2,1.2-0.5,2.5-1.8,3c-1.2,0.4-2.6-0.2-3.2-1.6c-0.3-0.8-0.8-1.2-1.4-1.7c-2.4-2.1-5.1-3.5-7.8-5.2  C80.2,70.4,79.3,69.4,77.8,69.1z M85.2,34.9c-0.9,0.2-1.7,0.2-2.7,0c0.2-0.8,1.1-1.2,0.9-2c-0.3-0.3-1.1,0-1.2-0.8  c1.8-0.7,3.8-0.4,5.4-1.6c-0.6-0.6-1.2-0.5-1.6-0.3c-1.2,0.7-2.5,0.7-3.9,0.8c-0.6,0-1.2,0.2-1.8,0.3c-0.5,0.1-0.8,0.2-0.9,0.8  c-0.2,1.7-0.5,3.4-0.3,5.1c0.1,0.8,0.5,1.4,1.5,1.3c1.9-0.1,3.7-0.6,5.4-1.4c0.9-0.4,1.5-1.3,1.1-2.2C86.7,34.2,85.8,34.7,85.2,34.9  L85.2,34.9z M77,33.2C77,33.2,76.9,33.2,77,33.2c0-0.2,0-0.3,0-0.5c0.1-2-0.1-2.2-2-2.3c-1.1,0-2.2,0.1-3.3-0.3  c-0.8-0.3-1,0.2-1.2,0.9c-0.6,2-0.2,4.1-0.7,6.2c-0.2,0.6,0.4,0.8,0.9,1c1.5,0.6,3.1,0.4,4.6,0.5c0.7,0.1,1-0.4,1.1-1.1  C76.6,36.1,76.8,34.7,77,33.2z M82.8,27.8c1.1,0,2.2,0.1,3.3-0.3c0.5-0.2,1-0.4,1.1-1c0-0.7-0.6-0.8-1-0.9c-1.8-0.6-3.8-0.8-5.7-0.9  c-2.7-0.1-5.4-0.2-8,0.1c-0.7,0.1-1.3,0.4-1.3,1.3c0,0.8,0.7,0.9,1.2,1c1.8,0.4,3.5,0.6,5.2-0.4c1.5-0.8,1.6-0.7,2.4,0.8  c0.2,0.4,0.4,0.6,0.8,0.5C81.5,28,82.1,27.9,82.8,27.8z M67.7,36c0,0.3-0.2,0.7,0.4,0.7c0.4,0,0.6-0.4,0.6-0.8c0.1-2,0.1-4,0.6-5.9  c0-0.2-0.1-0.5-0.3-0.5c-0.3-0.1-0.6,0.1-0.7,0.3c-0.3,0.5-0.2,1-0.2,1.5C68.1,32.8,68.1,34.4,67.7,36z M80.8,29.8  c0.5,0.2,0.8,0.1,1.2,0c0.3-0.1,0.7-0.3,1-0.4C82.2,29.4,81.4,29,80.8,29.8z M79.8,40.6c0.7-0.1,1.4-0.2,2-0.4  C81.2,40.1,80.5,39.8,79.8,40.6z M87.5,32.7c-0.6,0.1-1.2-0.1-1.9,0.6C86.4,33.1,87.1,33.5,87.5,32.7z M89.4,38.4  c0.1-0.4,0-0.6-0.2-0.6c-0.2,0-0.3,0.3-0.4,0.4c-0.1,0.2,0,0.4,0.3,0.5C89.3,38.7,89.4,38.5,89.4,38.4z"/><path d="M42,53.1c-0.2-1-1.8-0.7-1.9-1.9c3.2,0.8,4.9,2,5.5,4.1C44.4,54.2,43.6,52.9,42,53.1C41.9,53,42,53.1,42,53.1z"/><path d="M42.2,56.5c0.1,0.3,0.1,0.4-0.1,0.4c-0.3,0-0.5-0.2-0.7-0.4c-0.1-0.2-0.1-0.3,0.1-0.3C41.8,56.3,42,56.4,42.2,56.5z"/><path d="M28.2,38.4c-1.1,0.7-2.6,0.9-4.5,0.6C24.9,38.4,26.5,38.2,28.2,38.4z"/><path d="M85.1,35c0.2,0,0.4,0,0.7,0c0.4,0,0.8,0.2,0.7,0.7c0,0.4-0.4,0.8-0.8,0.6C84.8,36,83.8,36,82.8,36  C83.5,35.2,84.5,35.5,85.1,35C85.2,34.9,85.1,35,85.1,35z"/><text x="0" y="115" fill="#000000" font-size="5px" font-weight="bold" font-family="'Helvetica Neue', Helvetica, Arial-Unicode, Arial, Sans-serif">Created by Olga</text><text x="0" y="120" fill="#000000" font-size="5px" font-weight="bold" font-family="'Helvetica Neue', Helvetica, Arial-Unicode, Arial, Sans-serif">from the Noun Project</text></svg>